<svg id="visual" viewBox="0 0 900 600" width="900" height="800" xmlns="http://www.w3.org/2000/svg" xmlns:xlink="http://www.w3.org/1999/xlink" version="1.1"><path d="M602 600L584 600L584 560L737 560L737 520L629 520L629 480L683 480L683 440L584 440L584 400L719 400L719 360L647 360L647 320L593 320L593 280L755 280L755 240L602 240L602 200L710 200L710 160L701 160L701 120L593 120L593 80L656 80L656 40L593 40L593 0L900 0L900 40L900 40L900 80L900 80L900 120L900 120L900 160L900 160L900 200L900 200L900 240L900 240L900 280L900 280L900 320L900 320L900 360L900 360L900 400L900 400L900 440L900 440L900 480L900 480L900 520L900 520L900 560L900 560L900 600L900 600Z" fill="#1b3563"></path><path d="M503 600L476 600L476 560L584 560L584 520L476 520L476 480L557 480L557 440L404 440L404 400L548 400L548 360L566 360L566 320L467 320L467 280L683 280L683 240L512 240L512 200L566 200L566 160L620 160L620 120L458 120L458 80L494 80L494 40L476 40L476 0L594 0L594 40L657 40L657 80L594 80L594 120L702 120L702 160L711 160L711 200L603 200L603 240L756 240L756 280L594 280L594 320L648 320L648 360L720 360L720 400L585 400L585 440L684 440L684 480L630 480L630 520L738 520L738 560L585 560L585 600L603 600Z" fill="#a9adc2"></path><path d="M278 600L251 600L251 560L323 560L323 520L224 520L224 480L260 480L260 440L251 440L251 400L179 400L179 360L323 360L323 320L287 320L287 280L323 280L323 240L287 240L287 200L233 200L233 160L260 160L260 120L260 120L260 80L188 80L188 40L296 40L296 0L477 0L477 40L495 40L495 80L459 80L459 120L621 120L621 160L567 160L567 200L513 200L513 240L684 240L684 280L468 280L468 320L567 320L567 360L549 360L549 400L405 400L405 440L558 440L558 480L477 480L477 520L585 520L585 560L477 560L477 600L504 600Z" fill="#ffffff"></path><path d="M134 600L152 600L152 560L206 560L206 520L89 520L89 480L170 480L170 440L170 440L170 400L116 400L116 360L179 360L179 320L206 320L206 280L179 280L179 240L170 240L170 200L89 200L89 160L161 160L161 120L125 120L125 80L107 80L107 40L224 40L224 0L297 0L297 40L189 40L189 80L261 80L261 120L261 120L261 160L234 160L234 200L288 200L288 240L324 240L324 280L288 280L288 320L324 320L324 360L180 360L180 400L252 400L252 440L261 440L261 480L225 480L225 520L324 520L324 560L252 560L252 600L279 600Z" fill="#a9adc2"></path><path d="M0 600L0 600L0 560L0 560L0 520L0 520L0 480L0 480L0 440L0 440L0 400L0 400L0 360L0 360L0 320L0 320L0 280L0 280L0 240L0 240L0 200L0 200L0 160L0 160L0 120L0 120L0 80L0 80L0 40L0 40L0 0L225 0L225 40L108 40L108 80L126 80L126 120L162 120L162 160L90 160L90 200L171 200L171 240L180 240L180 280L207 280L207 320L180 320L180 360L117 360L117 400L171 400L171 440L171 440L171 480L90 480L90 520L207 520L207 560L153 560L153 600L135 600Z" fill="#1b3563"></path></svg>